# xmcd
#
# Track frame offsets: 
#        150
#        21997
#        42792
#        54636
#        78907
#        99949
#        114014
#        133499
#        149891
#        171295
#        198037
#        217831
#        243895
#
# Disc length: 3490 seconds
#
# Revision: 1
# Processed by: cddbd v1.5.2PL0 Copyright (c) Steve Scherf et al.
# Submitted via: ExactAudioCopyFreeDBPlugin 1.0
#
DISCID=ae0da00d
DTITLE=试音 - DTS51试音碟
DYEAR=1995
DGENRE=DTS
TTITLE0=The Power Of Love (Celine Dion)
TTITLE1=I Will Always Love You (Whitney Houston)
TTITLE2=日本小调
TTITLE3=铁达尼号
TTITLE4=单身情歌
TTITLE5=假如
TTITLE6=青藏高原
TTITLE7=同桌的你
TTITLE8=张三的歌
TTITLE9=出水莲
TTITLE10=满堂红
TTITLE11=傣乡晨曲
TTITLE12=拉德斯基进行曲
EXTD=
EXTT0=
EXTT1=
EXTT2=
EXTT3=
EXTT4=
EXTT5=
EXTT6=
EXTT7=
EXTT8=
EXTT9=
EXTT10=
EXTT11=
EXTT12=
PLAYORDER=
